<svg xmlns="http://www.w3.org/2000/svg" viewBox="0 0 700 700" fill="currentColor"><path d="M350 63C190.6 63 63 190.6 63 350s127.6 287 287 287c25.5 0 47.8-3.2 70.2-9.6 15.9-3.2 28.7-22.3 22.3-38.3-3.2-15.9-22.3-28.7-38.3-22.3-15.9 3.2-35.1 6.4-54.2 6.4-124.4 0-223.2-98.9-223.2-223.2S225.6 126.8 350 126.8c121.2 0 223.2 98.9 223.2 220v3.2c0 54.2-19.1 108.4-54.2 146.7-9.6 9.6-19.1 6.4-22.3 6.4s-12.8-6.4-12.8-19.1V350c0-73.3-60.6-133.9-133.9-133.9S216.1 276.7 216.1 350 276.7 483.9 350 483.9c25.5 0 51-6.4 70.2-19.1v22.3c0 35.1 22.3 63.8 54.2 76.5 31.9 12.8 70.2 3.2 92.5-22.3 44.6-51 70.2-118 70.2-188.1V350C637 190.6 509.4 63 350 63zm0 357.2c-38.3 0-70.2-31.9-70.2-70.2s31.9-70.2 70.2-70.2 70.2 31.9 70.2 70.2-31.9 70.2-70.2 70.2z"/></svg>
