<svg width="36" height="36" viewBox="0 0 36 36" fill="none" xmlns="http://www.w3.org/2000/svg">
<path d="M19.3717 25.7375L18.4633 26.6459C18.0787 27.0305 17.4567 27.0305 17.0762 26.6459L9.12172 18.6955C8.73709 18.3109 8.73709 17.6889 9.12172 17.3084L17.0762 9.3539C17.4608 8.96927 18.0828 8.96927 18.4633 9.3539L19.3717 10.2623C19.7604 10.651 19.7522 11.2852 19.3553 11.6658L14.4247 16.3632H26.1846C26.7288 16.3632 27.1666 16.801 27.1666 17.3452V18.6546C27.1666 19.1988 26.7288 19.6366 26.1846 19.6366H14.4247L19.3553 24.334C19.7563 24.7145 19.7645 25.3488 19.3717 25.7375Z" fill="currentColor"/>
<rect x="0.5" y="0.5" width="35" height="35" rx="17.5" stroke="currentColor"/>
</svg>
