<svg width="19" height="20" viewBox="0 0 19 20" xmlns="http://www.w3.org/2000/svg">
<path d="M15.4375 5.29435V16.1798C15.4375 16.9996 14.7729 17.6641 13.9531 17.6641H5.04688C4.22707 17.6641 3.5625 16.9996 3.5625 16.1798V5.29435C3.5625 4.47454 4.22707 3.80998 5.04688 3.80998H7.52083C7.52083 2.71865 8.40868 1.83081 9.5 1.83081C10.5913 1.83081 11.4792 2.71865 11.4792 3.80998H13.9531C14.7729 3.80998 15.4375 4.47454 15.4375 5.29435ZM9.5 3.06779C9.0901 3.06779 8.75781 3.40007 8.75781 3.80998C8.75781 4.21988 9.0901 4.55216 9.5 4.55216C9.9099 4.55216 10.2422 4.21988 10.2422 3.80998C10.2422 3.40007 9.9099 3.06779 9.5 3.06779ZM12.4688 6.59318V5.97469C12.4688 5.92548 12.4492 5.87829 12.4144 5.84349C12.3796 5.80869 12.3324 5.78914 12.2832 5.78914H6.7168C6.66759 5.78914 6.62039 5.80869 6.5856 5.84349C6.5508 5.87829 6.53125 5.92548 6.53125 5.97469V6.59318C6.53125 6.64239 6.5508 6.68959 6.5856 6.72438C6.62039 6.75918 6.66759 6.77873 6.7168 6.77873H12.2832C12.3324 6.77873 12.3796 6.75918 12.4144 6.72438C12.4492 6.68959 12.4688 6.64239 12.4688 6.59318Z" fill="currentColor"/>
</svg>
