<svg width="512" height="512" viewBox="0 0 512 512" fill="none" xmlns="http://www.w3.org/2000/svg">
<g clip-path="url(#clip0_695_100)">
<path d="M323.709 215C320.382 215 315.391 215 313.727 215C313.727 211.68 310.4 205.04 307.073 201.72C303.745 198.4 297.091 195.08 288.773 195.08C285.445 195.08 282.118 195.08 278.791 196.74C277.127 193.42 275.464 191.76 273.8 188.44C270.473 185.12 265.482 181.8 255.5 181.8C252.173 181.8 248.845 181.8 247.182 183.46V155.24C247.182 145.28 240.527 132 223.891 132C217.236 132 210.582 135.32 205.591 138.64C197.273 148.6 197.273 161.88 197.273 161.88V233.26C187.291 234.92 178.973 238.24 173.982 243.22C164 254.84 164 269.78 164 289.7C164 293.02 164 298 164 301.32C164 324.56 175.645 336.18 187.291 347.8L192.282 354.44C213.909 374.36 232.209 381 277.127 381C325.373 381 347 354.44 347 296.34V254.84C347 243.22 343.673 219.98 323.709 215ZM330.364 254.84V298C330.364 354.44 308.736 366.06 277.127 366.06C237.2 366.06 222.227 361.08 205.591 344.48C203.927 342.82 202.264 341.16 198.936 337.84C187.291 324.56 180.636 317.92 180.636 301.32C180.636 298 180.636 293.02 180.636 289.7C180.636 273.1 180.636 261.48 185.627 254.84C187.291 253.18 192.282 251.52 197.273 251.52V259.82L192.282 284.72C192.282 286.38 192.282 286.38 193.945 288.04C195.609 289.7 197.273 288.04 197.273 288.04L213.909 268.12C213.909 266.46 213.909 264.8 213.909 264.8V161.88C213.909 160.22 213.909 153.58 217.236 150.26C218.9 150.26 220.564 148.6 223.891 148.6C228.882 148.6 230.545 153.58 230.545 155.24V206.7V226.62C230.545 231.6 233.873 236.58 238.864 236.58C243.855 236.58 247.182 231.6 247.182 228.28V206.7C247.182 205.04 248.845 198.4 255.5 198.4C260.491 198.4 263.818 200.06 263.818 205.04V226.62C263.818 231.6 267.145 236.58 272.136 236.58C277.127 236.58 280.455 231.6 280.455 228.28V216.66C280.455 215 282.118 211.68 288.773 211.68C292.1 211.68 293.764 213.34 293.764 213.34C297.091 215 297.091 219.98 297.091 219.98V233.26C297.091 238.24 300.418 241.56 303.745 241.56C308.736 241.56 312.064 239.9 312.064 234.92C312.064 233.26 313.727 231.6 315.391 229.94C315.391 229.94 317.055 229.94 318.718 229.94C328.7 233.26 330.364 249.86 330.364 254.84C330.364 253.18 330.364 253.18 330.364 254.84Z" fill="#F5F5F5"/>
<rect x="50" y="50" width="412" height="412" stroke="#F5F5F5" stroke-width="8" stroke-dasharray="8 8"/>
</g>
<defs>
<clipPath id="clip0_695_100">
<rect width="512" height="512" fill="white" transform="translate(0 512) rotate(-90)"/>
</clipPath>
</defs>
</svg>
