<svg xmlns="http://www.w3.org/2000/svg" version="1.0" viewBox="0 0 512 512"><path fill="currentColor" d="M44.4 22.5c-8.2 1.8-13.7 4.7-20.1 10.7-6.2 5.9-9.5 11.2-11.7 18.9-1.5 5-1.6 15.4-1.4 99.5l.3 93.9 3.2 6.7c4.4 9.4 10.9 16 20.1 20.6 7.1 3.4 8.3 3.7 18.4 4.1l10.8.3v17.5c0 19.3.7 22.1 5.9 24.3 6.1 2.5 8.5 1.1 35.7-21l25.9-20.9 35.8-.1H203v-25.3c0-18.6.4-26.7 1.4-30.7.8-3 1.4-5.5 1.3-5.6-.1 0-4-1.3-8.7-2.8-11.4-3.6-24.4-10.1-36.4-18-5.5-3.6-10.1-6.6-10.1-6.6-.1 0-4 2.5-8.5 5.6-4.6 3.1-12.9 7.8-18.3 10.6-9.3 4.6-28.7 11.8-31.9 11.8-.9 0-2.3-1.9-3.2-4.4-.9-2.3-3.6-7.2-6-10.8l-4.4-6.6 6.6-1.7c15.3-4.1 33.8-11.7 44.9-18.6l3.3-2-5.4-6.7c-9.1-11.4-16.6-24.7-22.2-39.2l-3.2-8.5-11.1.3-11.1.2V96.4l27.5.4 27.5.5V77h25v20.1l29-.3 29-.3V119.2l-11.3-.7-11.2-.7-2.3 7.9c-4.2 14.2-13.7 31.9-22.3 41.8-1.7 1.9-2.8 3.9-2.4 4.5 1.1 1.8 13.8 8.8 21.6 11.9 4.2 1.7 12.2 4.2 17.8 5.7l10.2 2.6 4.7-4.4c6.6-6.1 14-10.6 22.4-13.6 6.6-2.4 9-2.7 25.1-3l17.7-.4v-55.7c0-46.9-.2-56.6-1.5-61.6-4.2-16.1-17.5-28.4-33.9-31.4-9.4-1.7-200.2-1.4-208.2.4z"/><path fill="currentColor" d="M127.6 120.7c2.9 12.1 13.7 32.8 20.1 38.6 2 1.7 2.1 1.6 6.5-5 8.2-12.3 14.8-27.4 14.8-34V118h-42l.6 2.7zM256 193.4c-14.7 4.1-26.7 16.2-30.6 31-2 7.4-2 183.7 0 191.1 2.9 11 11.1 21.7 20.4 26.8 10.3 5.6 11.5 5.7 75.3 5.7h58.7l25.4 20.5c26.7 21.7 30.2 23.8 35.4 21.4 5.4-2.6 6.4-6.5 6.4-25v-16.6l10.3-.5c6.4-.3 11.8-1.2 14.7-2.3 12.7-5.1 22.3-15.2 26-27.4 2-6.4 2-8.9 1.8-101.1l-.3-94.5-3.3-6.8c-5.6-11.3-16.3-19.9-28.3-22.6-6.9-1.6-206.1-1.3-211.9.3zm124 63c0 .2 9.9 28.6 22 63.2 12.1 34.5 22 63.2 22 63.6 0 .5-6.6.7-14.7.6l-14.7-.3-4.7-14.5-4.8-14.5-22.9-.3-22.9-.2-4.3 15-4.3 15h-14.4c-8.7 0-14.3-.4-14.1-.9.2-.6 10.2-29.4 22.3-64l22-63.1h16.8c9.2 0 16.7.2 16.7.4z"/><path fill="currentColor" d="M354.7 303.9c-4.2 14.7-7.7 27-7.7 27.4 0 .4 7.2.7 16 .7 12.4 0 16-.3 16-1.3 0-1.8-13.5-46.5-15.2-50.4-1.4-3.2-1.5-2.8-9.1 23.6z"/></svg>
