<svg width="512" height="512" viewBox="0 0 512 512" fill="none" xmlns="http://www.w3.org/2000/svg">
<path d="M498.797 411.305L287.865 50.1905C270.274 32.6032 241.732 32.6032 224.142 50.1905L13.1927 411.305C-4.39758 428.875 -4.39758 457.396 13.1927 475H498.78C516.404 457.396 516.404 428.875 498.797 411.305ZM236.576 179.822C236.576 165.856 247.899 154.552 261.85 154.552C275.801 154.552 287.123 165.856 287.123 179.822V297.745C287.123 311.693 275.801 323.014 261.85 323.014C247.899 323.014 236.576 311.693 236.576 297.745V179.822ZM262.001 407.38C248.05 407.38 236.728 396.093 236.728 382.11C236.728 368.162 248.05 356.841 262.001 356.841C275.952 356.841 287.275 368.162 287.275 382.11C287.275 396.093 275.952 407.38 262.001 407.38Z" fill="#FF3333"/>
</svg>
