<svg width="512" height="512" viewBox="0 0 512 512" fill="none" xmlns="http://www.w3.org/2000/svg">
<path d="M264.66 286C260.811 292.667 251.189 292.667 247.34 286L230.019 256C226.17 249.333 230.981 241 238.679 241H273.32C281.018 241 285.83 249.333 281.981 256L264.66 286Z" fill="url(#paint0_linear_673_100)"/>
<rect x="2.5" y="155.5" width="507" height="98" rx="17.5" fill="url(#paint1_linear_673_100)" stroke="#7600ED" stroke-width="5"/>
<path d="M173.885 189.455H180.268V210.753C180.268 212.722 179.826 214.432 178.941 215.884C178.066 217.335 176.848 218.454 175.287 219.239C173.726 220.025 171.911 220.418 169.843 220.418C168.004 220.418 166.333 220.094 164.832 219.448C163.34 218.792 162.157 217.798 161.282 216.465C160.407 215.123 159.974 213.437 159.984 211.409H166.413C166.433 212.214 166.597 212.906 166.905 213.482C167.223 214.049 167.656 214.487 168.202 214.795C168.759 215.093 169.415 215.242 170.171 215.242C170.967 215.242 171.638 215.073 172.185 214.735C172.741 214.387 173.164 213.88 173.452 213.214C173.741 212.548 173.885 211.727 173.885 210.753V189.455ZM195.839 220.447C193.523 220.447 191.519 219.955 189.829 218.971C188.148 217.977 186.851 216.594 185.936 214.825C185.021 213.045 184.564 210.982 184.564 208.635C184.564 206.268 185.021 204.2 185.936 202.43C186.851 200.651 188.148 199.268 189.829 198.284C191.519 197.29 193.523 196.793 195.839 196.793C198.156 196.793 200.155 197.29 201.835 198.284C203.526 199.268 204.828 200.651 205.743 202.43C206.658 204.2 207.115 206.268 207.115 208.635C207.115 210.982 206.658 213.045 205.743 214.825C204.828 216.594 203.526 217.977 201.835 218.971C200.155 219.955 198.156 220.447 195.839 220.447ZM195.869 215.526C196.923 215.526 197.803 215.227 198.509 214.631C199.215 214.024 199.747 213.199 200.105 212.155C200.473 211.111 200.657 209.923 200.657 208.59C200.657 207.258 200.473 206.07 200.105 205.026C199.747 203.982 199.215 203.156 198.509 202.55C197.803 201.943 196.923 201.64 195.869 201.64C194.805 201.64 193.911 201.943 193.185 202.55C192.469 203.156 191.927 203.982 191.559 205.026C191.201 206.07 191.022 207.258 191.022 208.59C191.022 209.923 191.201 211.111 191.559 212.155C191.927 213.199 192.469 214.024 193.185 214.631C193.911 215.227 194.805 215.526 195.869 215.526ZM217.6 206.756V220H211.246V189.455H217.421V201.133H217.69C218.207 199.781 219.042 198.722 220.195 197.956C221.349 197.18 222.795 196.793 224.536 196.793C226.126 196.793 227.513 197.141 228.697 197.837C229.89 198.523 230.815 199.512 231.471 200.805C232.137 202.087 232.465 203.624 232.455 205.413V220H226.102V206.547C226.112 205.135 225.754 204.036 225.028 203.251C224.312 202.465 223.308 202.072 222.015 202.072C221.15 202.072 220.384 202.256 219.718 202.624C219.062 202.992 218.545 203.529 218.167 204.235C217.799 204.931 217.61 205.771 217.6 206.756ZM243.809 206.756V220H237.455V197.091H243.511V201.133H243.779C244.286 199.8 245.137 198.746 246.33 197.971C247.523 197.185 248.97 196.793 250.67 196.793C252.261 196.793 253.648 197.141 254.831 197.837C256.014 198.533 256.934 199.527 257.59 200.82C258.247 202.102 258.575 203.634 258.575 205.413V220H252.221V206.547C252.231 205.145 251.873 204.051 251.147 203.266C250.421 202.47 249.422 202.072 248.149 202.072C247.294 202.072 246.539 202.256 245.882 202.624C245.236 202.992 244.729 203.529 244.361 204.235C244.003 204.931 243.819 205.771 243.809 206.756ZM284.251 220H273.422V189.455H284.34C287.412 189.455 290.057 190.066 292.275 191.289C294.492 192.502 296.197 194.247 297.39 196.524C298.594 198.801 299.195 201.526 299.195 204.697C299.195 207.879 298.594 210.614 297.39 212.901C296.197 215.187 294.482 216.942 292.245 218.165C290.018 219.388 287.353 220 284.251 220ZM279.881 214.467H283.982C285.891 214.467 287.497 214.129 288.8 213.452C290.112 212.766 291.096 211.707 291.753 210.276C292.419 208.834 292.752 206.974 292.752 204.697C292.752 202.44 292.419 200.596 291.753 199.164C291.096 197.732 290.117 196.678 288.814 196.002C287.512 195.326 285.906 194.988 283.997 194.988H279.881V214.467ZM314.211 220.447C311.894 220.447 309.89 219.955 308.2 218.971C306.52 217.977 305.222 216.594 304.307 214.825C303.392 213.045 302.935 210.982 302.935 208.635C302.935 206.268 303.392 204.2 304.307 202.43C305.222 200.651 306.52 199.268 308.2 198.284C309.89 197.29 311.894 196.793 314.211 196.793C316.527 196.793 318.526 197.29 320.206 198.284C321.897 199.268 323.199 200.651 324.114 202.43C325.029 204.2 325.486 206.268 325.486 208.635C325.486 210.982 325.029 213.045 324.114 214.825C323.199 216.594 321.897 217.977 320.206 218.971C318.526 219.955 316.527 220.447 314.211 220.447ZM314.24 215.526C315.294 215.526 316.174 215.227 316.88 214.631C317.586 214.024 318.118 213.199 318.476 212.155C318.844 211.111 319.028 209.923 319.028 208.59C319.028 207.258 318.844 206.07 318.476 205.026C318.118 203.982 317.586 203.156 316.88 202.55C316.174 201.943 315.294 201.64 314.24 201.64C313.176 201.64 312.282 201.943 311.556 202.55C310.84 203.156 310.298 203.982 309.93 205.026C309.572 206.07 309.393 207.258 309.393 208.59C309.393 209.923 309.572 211.111 309.93 212.155C310.298 213.199 310.84 214.024 311.556 214.631C312.282 215.227 313.176 215.526 314.24 215.526ZM340.058 220.447C337.701 220.447 335.673 219.97 333.973 219.016C332.282 218.051 330.98 216.689 330.065 214.929C329.15 213.159 328.693 211.066 328.693 208.65C328.693 206.293 329.15 204.225 330.065 202.445C330.98 200.665 332.267 199.278 333.928 198.284C335.598 197.29 337.557 196.793 339.804 196.793C341.316 196.793 342.723 197.036 344.025 197.523C345.338 198.001 346.481 198.722 347.456 199.686C348.44 200.651 349.206 201.864 349.752 203.325C350.299 204.777 350.573 206.477 350.573 208.426V210.171H331.228V206.234H344.592C344.592 205.319 344.393 204.509 343.995 203.803C343.598 203.097 343.046 202.545 342.34 202.147C341.644 201.739 340.833 201.536 339.909 201.536C338.944 201.536 338.089 201.759 337.343 202.207C336.608 202.644 336.031 203.236 335.613 203.982C335.196 204.717 334.982 205.538 334.972 206.442V210.186C334.972 211.32 335.181 212.299 335.598 213.124C336.026 213.95 336.627 214.586 337.403 215.033C338.179 215.481 339.098 215.705 340.162 215.705C340.868 215.705 341.515 215.605 342.101 215.406C342.688 215.207 343.19 214.909 343.608 214.511C344.025 214.114 344.343 213.626 344.562 213.05L350.439 213.438C350.14 214.849 349.529 216.082 348.604 217.136C347.689 218.18 346.506 218.996 345.054 219.582C343.613 220.159 341.947 220.447 340.058 220.447Z" fill="white"/>
<defs>
<linearGradient id="paint0_linear_673_100" x1="256.156" y1="302.081" x2="256.156" y2="230.189" gradientUnits="userSpaceOnUse">
<stop stop-color="#292929"/>
<stop offset="1" stop-color="#1B1B1B"/>
</linearGradient>
<linearGradient id="paint1_linear_673_100" x1="255" y1="151.608" x2="255" y2="244.169" gradientUnits="userSpaceOnUse">
<stop stop-color="#292929"/>
<stop offset="1" stop-color="#1B1B1B"/>
</linearGradient>
</defs>
</svg>
