<svg width="19" height="21" viewBox="0 0 19 21" xmlns="http://www.w3.org/2000/svg">
<path d="M16.0102 4.67429L10.0722 2.10602C9.89127 2.02813 9.69737 1.98804 9.50154 1.98804C9.30571 1.98804 9.11181 2.02813 8.93093 2.10602L2.99285 4.67429C2.43924 4.91186 2.07739 5.47367 2.07739 6.09648C2.07739 12.469 5.61859 16.8736 8.92783 18.3054C9.29278 18.4627 9.70411 18.4627 10.0691 18.3054C12.7195 17.1593 16.9226 13.201 16.9226 6.09648C16.9226 5.47367 16.5607 4.91186 16.0102 4.67429ZM9.50309 16.315L9.49999 4.08359L14.9401 6.43677C14.8381 11.2972 12.401 14.819 9.50309 16.315Z" fill="currentColor"/>
</svg>
